Coordinates
nRows=110
nColumns=2
inDegrees=yes
endheader
time	ankle_angle_r	
3.72177	  9.586317	
3.79335	  9.561322	
3.86492	  9.576373	
3.93649	  9.527840	
4.00806	  9.562831	
4.07964	  9.591007	
4.15121	  9.536743	
4.22278	  9.574448	
4.29435	  9.537681	
4.36593	  9.613090	
4.4375	  9.521121	
4.50907	  9.506226	
4.58065	  9.589551	
4.65222	  9.536743	
4.72379	  9.560645	
4.79536	  9.527892	
4.86694	  9.643555	
4.93851	  9.543294	
5.01008	  9.527268	
5.08165	  9.588095	
5.15323	  9.587887	
5.2248	  9.572420	
5.29637	  9.552002	
5.36794	  9.663557	
5.43952	  9.632832	
5.51109	  9.613037	
5.58266	  9.628296	
5.65423	  9.620473	
5.72581	  9.670369	
5.79738	  9.606047	
5.86895	  9.580410	
5.94052	  9.643555	
6.0121	  9.582520	
6.08367	  9.567261	
6.15524	  9.564805	
6.22681	  9.580273	
6.29839	  9.532665	
6.36996	  9.521484	
6.44153	  9.582520	
6.5131	  9.564430	
6.58468	  9.554416	
6.65625	  9.539741	
6.72782	  9.627505	
6.7994	  9.641806	
6.87097	  9.673323	
6.94254	  9.704590	
7.01411	  9.674113	
7.08569	  9.719600	
7.15726	  9.628296	
7.22883	  9.719184	
7.3004	  9.705463	
7.37198	  9.628296	
7.44355	  9.689331	
7.51512	  9.645052	
7.58669	  9.704590	
7.65827	  9.569174	
7.72984	  9.580399	
7.80141	  9.704590	
7.87298	  9.579982	
7.94456	  9.653323	
8.01613	  9.622389	
8.0877	  9.637780	
8.15927	  9.616406	
8.23085	  9.589674	
8.30242	  9.735107	
8.37399	  9.575248	
8.44556	  9.669870	
8.51714	  9.593369	
8.58871	  9.680096	
8.66028	  9.561653	
8.73185	  9.577328	
8.80343	  9.597778	
8.875	  9.587969	
8.94657	  9.557659	
9.01815	  9.561395	
9.08972	  9.573335	
9.16129	  9.613037	
9.23286	  9.527974	
9.30444	  9.553865	
9.37601	  9.558908	
9.44758	  9.567261	
9.51915	  9.514778	
9.59073	  9.574989	
9.6623	  9.613037	
9.73387	  9.528165	
9.80544	  9.552002	
9.87702	  9.552002	
9.94859	  9.591089	
10.0202	  9.512707	
10.0917	  9.534030	
10.1633	  9.628296	
10.2349	  9.567261	
10.3065	  9.622647	
10.378	  9.664254	
10.4496	  9.643555	
10.5212	  9.597778	
10.5927	  9.556819	
10.6643	  9.602387	
10.7359	  9.578119	
10.8075	  9.567261	
10.879	  9.525469	
10.9506	  9.590073	
11.0222	  9.602331	
11.0937	  9.530022	
11.1653	  9.567261	
11.2369	  9.552002	
11.3085	  9.567261	
11.38	  9.552002	
11.4516	  9.556643	
11.5232	  9.595666	
